<svg width="15" height="16" viewBox="0 0 15 16" fill="none" xmlns="http://www.w3.org/2000/svg">
<path d="M14.8438 13.9659H1.40625V0.670455C1.40625 0.576705 1.33594 0.5 1.25 0.5H0.15625C0.0703125 0.5 0 0.576705 0 0.670455V15.3295C0 15.4233 0.0703125 15.5 0.15625 15.5H14.8438C14.9297 15.5 15 15.4233 15 15.3295V14.1364C15 14.0426 14.9297 13.9659 14.8438 13.9659ZM3.125 12.2614H4.21875C4.30469 12.2614 4.375 12.1847 4.375 12.0909V9.02273C4.375 8.92898 4.30469 8.85227 4.21875 8.85227H3.125C3.03906 8.85227 2.96875 8.92898 2.96875 9.02273V12.0909C2.96875 12.1847 3.03906 12.2614 3.125 12.2614ZM6.09375 12.2614H7.1875C7.27344 12.2614 7.34375 12.1847 7.34375 12.0909V5.27273C7.34375 5.17898 7.27344 5.10227 7.1875 5.10227H6.09375C6.00781 5.10227 5.9375 5.17898 5.9375 5.27273V12.0909C5.9375 12.1847 6.00781 12.2614 6.09375 12.2614ZM9.0625 12.2614H10.1562C10.2422 12.2614 10.3125 12.1847 10.3125 12.0909V6.93466C10.3125 6.84091 10.2422 6.7642 10.1562 6.7642H9.0625C8.97656 6.7642 8.90625 6.84091 8.90625 6.93466V12.0909C8.90625 12.1847 8.97656 12.2614 9.0625 12.2614ZM12.0312 12.2614H13.125C13.2109 12.2614 13.2812 12.1847 13.2812 12.0909V3.56818C13.2812 3.47443 13.2109 3.39773 13.125 3.39773H12.0312C11.9453 3.39773 11.875 3.47443 11.875 3.56818V12.0909C11.875 12.1847 11.9453 12.2614 12.0312 12.2614Z" fill="white"/>
</svg>
