<svg width="15" height="16" viewBox="0 0 15 16" fill="none" xmlns="http://www.w3.org/2000/svg">
<path d="M13.125 1.48085C13.3736 1.48085 13.6121 1.58419 13.7879 1.76813C13.9637 1.95208 14.0625 2.20156 14.0625 2.4617V10.3085C14.0625 10.5686 13.9637 10.8181 13.7879 11.002C13.6121 11.186 13.3736 11.2893 13.125 11.2893H4.13813C3.64088 11.2894 3.16405 11.4962 2.8125 11.8641L0.9375 13.8258V2.4617C0.9375 2.20156 1.03627 1.95208 1.21209 1.76813C1.3879 1.58419 1.62636 1.48085 1.875 1.48085H13.125ZM1.875 0.5C1.37772 0.5 0.900806 0.706678 0.549175 1.07457C0.197544 1.44246 0 1.94142 0 2.4617L0 15.0097C1.97014e-05 15.1067 0.0275555 15.2016 0.0791224 15.2822C0.130689 15.3629 0.203969 15.4257 0.289687 15.4628C0.375405 15.4999 0.469707 15.5095 0.560659 15.4905C0.65161 15.4715 0.735122 15.4246 0.800625 15.3559L3.47531 12.5576C3.65109 12.3736 3.8895 12.2702 4.13813 12.2702H13.125C13.6223 12.2702 14.0992 12.0635 14.4508 11.6956C14.8025 11.3277 15 10.8288 15 10.3085V2.4617C15 1.94142 14.8025 1.44246 14.4508 1.07457C14.0992 0.706678 13.6223 0.5 13.125 0.5H1.875Z" fill="white"/>
<path d="M2.8125 3.93297C2.8125 3.8029 2.86189 3.67816 2.94979 3.58618C3.0377 3.49421 3.15693 3.44254 3.28125 3.44254H11.7188C11.8431 3.44254 11.9623 3.49421 12.0502 3.58618C12.1381 3.67816 12.1875 3.8029 12.1875 3.93297C12.1875 4.06304 12.1381 4.18778 12.0502 4.27975C11.9623 4.37172 11.8431 4.42339 11.7188 4.42339H3.28125C3.15693 4.42339 3.0377 4.37172 2.94979 4.27975C2.86189 4.18778 2.8125 4.06304 2.8125 3.93297ZM2.8125 6.38509C2.8125 6.25502 2.86189 6.13028 2.94979 6.0383C3.0377 5.94633 3.15693 5.89466 3.28125 5.89466H11.7188C11.8431 5.89466 11.9623 5.94633 12.0502 6.0383C12.1381 6.13028 12.1875 6.25502 12.1875 6.38509C12.1875 6.51515 12.1381 6.6399 12.0502 6.73187C11.9623 6.82384 11.8431 6.87551 11.7188 6.87551H3.28125C3.15693 6.87551 3.0377 6.82384 2.94979 6.73187C2.86189 6.6399 2.8125 6.51515 2.8125 6.38509ZM2.8125 8.83721C2.8125 8.70714 2.86189 8.5824 2.94979 8.49042C3.0377 8.39845 3.15693 8.34678 3.28125 8.34678H7.96875C8.09307 8.34678 8.2123 8.39845 8.30021 8.49042C8.38811 8.5824 8.4375 8.70714 8.4375 8.83721C8.4375 8.96727 8.38811 9.09202 8.30021 9.18399C8.2123 9.27596 8.09307 9.32763 7.96875 9.32763H3.28125C3.15693 9.32763 3.0377 9.27596 2.94979 9.18399C2.86189 9.09202 2.8125 8.96727 2.8125 8.83721Z" fill="white"/>
</svg>
