<svg width="16" height="16" viewBox="0 0 16 16" fill="none" xmlns="http://www.w3.org/2000/svg">
<path d="M15.3556 7.87958L8.96254 1.11406L8.53402 0.660336C8.43638 0.557638 8.30434 0.5 8.16672 0.5C8.02909 0.5 7.89705 0.557638 7.79941 0.660336L0.977806 7.87958C0.877759 7.9851 0.79869 8.11077 0.745266 8.24918C0.691843 8.38758 0.665147 8.53591 0.666756 8.68542C0.673374 9.30206 1.15815 9.79432 1.74054 9.79432H2.44372V15.5H13.8897V9.79432H14.6078C14.8907 9.79432 15.1571 9.67695 15.3573 9.46498C15.4559 9.36094 15.534 9.23723 15.5871 9.10101C15.6402 8.9648 15.6672 8.81877 15.6667 8.67141C15.6667 8.3736 15.5558 8.09155 15.3556 7.87958ZM9.09325 14.2387H7.24018V10.665H9.09325V14.2387ZM12.6985 8.53301V14.2387H10.1521V10.2445C10.1521 9.85739 9.85599 9.54381 9.49034 9.54381H6.8431C6.47745 9.54381 6.18129 9.85739 6.18129 10.2445V14.2387H3.63497V8.53301H2.04663L8.16837 2.05654L8.55057 2.46121L14.2885 8.53301H12.6985Z" fill="white"/>
</svg>
