<svg width="16" height="16" viewBox="0 0 16 16" fill="none" xmlns="http://www.w3.org/2000/svg">
<path d="M8.33337 14.5625C6.59289 14.5625 4.92369 13.8711 3.69299 12.6404C2.46228 11.4097 1.77087 9.74048 1.77087 8C1.77087 6.25952 2.46228 4.59032 3.69299 3.35961C4.92369 2.1289 6.59289 1.4375 8.33337 1.4375C10.0739 1.4375 11.7431 2.1289 12.9738 3.35961C14.2045 4.59032 14.8959 6.25952 14.8959 8C14.8959 9.74048 14.2045 11.4097 12.9738 12.6404C11.7431 13.8711 10.0739 14.5625 8.33337 14.5625ZM8.33337 15.5C10.3225 15.5 12.2302 14.7098 13.6367 13.3033C15.0432 11.8968 15.8334 9.98912 15.8334 8C15.8334 6.01088 15.0432 4.10322 13.6367 2.6967C12.2302 1.29018 10.3225 0.5 8.33337 0.5C6.34425 0.5 4.4366 1.29018 3.03007 2.6967C1.62355 4.10322 0.833374 6.01088 0.833374 8C0.833374 9.98912 1.62355 11.8968 3.03007 13.3033C4.4366 14.7098 6.34425 15.5 8.33337 15.5Z" fill="white"/>
<path d="M9.20533 6.67625L7.05845 6.94531L6.98158 7.30156L7.40345 7.37937C7.67908 7.445 7.73345 7.54437 7.67345 7.81906L6.98158 11.0703C6.7997 11.9113 7.08001 12.3069 7.73908 12.3069C8.25001 12.3069 8.84345 12.0706 9.11251 11.7463L9.19501 11.3563C9.00751 11.5213 8.73376 11.5869 8.55189 11.5869C8.29408 11.5869 8.20033 11.4059 8.26689 11.0872L9.20533 6.67625ZM9.27095 4.71875C9.27095 4.96739 9.17218 5.20585 8.99636 5.38166C8.82055 5.55748 8.58209 5.65625 8.33345 5.65625C8.08481 5.65625 7.84635 5.55748 7.67054 5.38166C7.49472 5.20585 7.39595 4.96739 7.39595 4.71875C7.39595 4.47011 7.49472 4.23165 7.67054 4.05584C7.84635 3.88002 8.08481 3.78125 8.33345 3.78125C8.58209 3.78125 8.82055 3.88002 8.99636 4.05584C9.17218 4.23165 9.27095 4.47011 9.27095 4.71875Z" fill="white"/>
</svg>
