<svg width="33" height="34" viewBox="0 0 33 34" fill="none" xmlns="http://www.w3.org/2000/svg">
<path d="M16.5 32C24.7842 32 31.4999 25.2843 31.4999 17C31.4999 8.71573 24.7842 2 16.5 2C8.21571 2 1.5 8.71573 1.5 17C1.5 25.2843 8.21571 32 16.5 32Z" stroke="#FFF8F8" stroke-width="2.66667" stroke-linecap="round" stroke-linejoin="round"/>
<path d="M9.75012 24.5C13.2481 20.837 19.7146 20.6645 23.2501 24.5M20.2426 13.25C20.2426 15.32 18.5626 17 16.4881 17C15.9951 17.0008 15.5069 16.9044 15.0512 16.7163C14.5955 16.5282 14.1814 16.2521 13.8326 15.9038C13.4837 15.5555 13.207 15.1418 13.0181 14.6864C12.8293 14.2311 12.7321 13.743 12.7321 13.25C12.7321 11.18 14.4121 9.5 16.4881 9.5C16.9809 9.49941 17.4691 9.59597 17.9245 9.78416C18.38 9.97235 18.794 10.2485 19.1427 10.5968C19.4914 10.945 19.768 11.3586 19.9567 11.8139C20.1454 12.2692 20.2426 12.7572 20.2426 13.25Z" stroke="#FFF8F8" stroke-width="2.66667" stroke-linecap="round" stroke-linejoin="round"/>
</svg>
